<?xml version="1.0" standalone="no"?>
<!DOCTYPE svg PUBLIC "-//W3C//DTD SVG 20010904//EN"
 "http://www.w3.org/TR/2001/REC-SVG-20010904/DTD/svg10.dtd">
<svg version="1.0" xmlns="http://www.w3.org/2000/svg"
 width="160.000000pt" height="160.000000pt" viewBox="0 0 160.000000 160.000000"
 preserveAspectRatio="xMidYMid meet">
<metadata>
Created by potrace 1.14, written by Peter Selinger 2001-2017
</metadata>
<g transform="translate(0.000000,160.000000) scale(0.100000,-0.100000)"
fill="#000000" stroke="none">
<path d="M670 1523 c-110 -41 -229 -140 -311 -259 -60 -88 -129 -247 -144
-335 -3 -19 -9 -50 -14 -69 -9 -42 -7 -190 3 -240 20 -103 58 -212 84 -242 8
-10 12 -18 8 -18 -8 0 47 -75 93 -126 134 -148 352 -215 541 -167 59 15 136
50 158 70 7 7 17 13 21 13 12 0 124 109 153 150 57 79 113 206 125 285 2 17 7
41 10 55 7 32 7 208 0 236 -3 12 -8 37 -11 55 -24 149 -121 327 -245 449 -159
157 -312 203 -471 143z"/>
</g>
</svg>
